<?xml version="1.0" encoding="iso-8859-1"?>
<!-- Generator: Adobe Illustrator 19.0.0, SVG Export Plug-In . SVG Version: 6.00 Build 0)  -->
<svg version="1.1" id="Layer_1" xmlns="http://www.w3.org/2000/svg" xmlns:xlink="http://www.w3.org/1999/xlink" x="0px" y="0px"
	 viewBox="0 0 512.001 512.001" style="enable-background:new 0 0 512.001 512.001;" xml:space="preserve">
<g>
	<g>
		<g>
			<path d="M300.673,223.905c0-24.632-20.04-44.672-44.673-44.672s-44.672,20.04-44.672,44.672c0,24.632,20.04,44.672,44.672,44.672
				S300.673,248.538,300.673,223.905z M256,252.846c-15.957,0-28.941-12.983-28.941-28.941s12.983-28.941,28.941-28.941
				c15.959,0,28.942,12.983,28.942,28.941S271.959,252.846,256,252.846z"/>
			<path d="M287.872,288.307L287.872,288.307c23.683-11.769,40.005-36.209,40.005-64.402c0-39.634-32.244-71.877-71.877-71.877
				c-39.634,0-71.877,32.244-71.877,71.877c0,28.193,16.323,52.633,40.007,64.402v31.481h23.962l-1.032,192.129l15.732,0.085
				l1.033-192.212h24.047V288.307z M199.855,223.905c0-30.96,25.187-56.146,56.146-56.146c30.958,0,56.146,25.187,56.146,56.146
				s-25.187,56.147-56.146,56.147C225.043,280.052,199.855,254.865,199.855,223.905z M272.139,304.056h-32.278v-10.123
				c5.191,1.197,10.588,1.85,16.138,1.85s10.947-0.653,16.139-1.85V304.056z"/>
			<polygon points="272.139,503.822 328.014,503.822 328.014,488.09 287.871,488.09 287.871,431.808 328.014,431.808 
				328.014,416.077 272.139,416.077 			"/>
			<path d="M128.112,0v111.749h98.418l33.862,16.931l33.86-16.931h89.636V0H128.112z M368.157,96.018h-77.618l-30.147,15.075
				l-30.148-15.075h-86.4V15.732h224.313V96.018z"/>
			<rect x="312.008" y="440.083" width="16.003" height="15.731"/>
			<rect x="312.008" y="464.089" width="16.003" height="15.732"/>
			<rect x="183.985" y="48.008" width="16.003" height="15.731"/>
			<rect x="215.994" y="48.008" width="16.003" height="15.731"/>
			<rect x="248.002" y="48.008" width="16.003" height="15.731"/>
			<rect x="280.01" y="48.008" width="16.003" height="15.731"/>
			<rect x="312.008" y="48.008" width="16.003" height="15.731"/>
		</g>
	</g>
</g>
<g>
</g>
<g>
</g>
<g>
</g>
<g>
</g>
<g>
</g>
<g>
</g>
<g>
</g>
<g>
</g>
<g>
</g>
<g>
</g>
<g>
</g>
<g>
</g>
<g>
</g>
<g>
</g>
<g>
</g>
</svg>
